<?xml version="1.0" encoding="UTF-8"?> <svg xmlns="http://www.w3.org/2000/svg" width="180.62222mm" height="180.62222mm" viewBox="0 0 512 512"> <path d="M256,490.7V512c141.4,0,256-114.6,256-256S397.4,0,256,0,0,114.6,0,256,114.6,512,256,512V469.4a213.38838,213.38838,0,1,1,150.9-62.5A212.41476,212.41476,0,0,1,256,469.4Zm0,0V512a72.57271,72.57271,0,0,0,31.1-6.9c16.8-7.9,29.4-21.7,39-38,14.4-24.6,23-55.8,28.6-91.8,5.6-35.9,7.9-76.6,7.9-119.4-.1-65.2-5.2-125.3-19.6-171.7C335.7,61,326.1,41,312,25.5A81.55835,81.55835,0,0,0,287.1,6.8,73.9937,73.9937,0,0,0,256,0a72.57272,72.57272,0,0,0-31.1,6.9c-16.8,7.9-29.4,21.7-39,38-14.4,24.6-23,55.8-28.6,91.8-5.6,35.9-7.9,76.6-7.9,119.4.1,65.2,5.2,125.3,19.6,171.7,7.3,23.2,16.9,43.2,31,58.7a81.55854,81.55854,0,0,0,24.9,18.7,72.90266,72.90266,0,0,0,31.1,6.9V469.4a29.48243,29.48243,0,0,1-12.9-2.8c-6.7-3.1-13.7-9.7-20.4-21-10.1-16.9-18.2-43.9-23.3-76.7C194.3,336,192,297.2,192,256c-.1-62.8,5.4-120,17.7-159,6-19.5,13.8-34.1,21.7-42.6a38.3297,38.3297,0,0,1,11.7-9,31.11607,31.11607,0,0,1,25.8,0c6.7,3.1,13.7,9.7,20.4,21,10.1,16.9,18.2,43.9,23.3,76.7,5.1,32.9,7.4,71.6,7.4,112.8.1,62.8-5.4,120-17.7,159-6,19.5-13.8,34.1-21.70011,42.6a38.3271,38.3271,0,0,1-11.7,9,29.48243,29.48243,0,0,1-12.9,2.8v21.4ZM42.7,362.7H469.4V320H42.7Zm0-170.7H469.4V149.3H42.7Z"></path> </svg> 