<?xml version="1.0" encoding="UTF-8"?> <svg xmlns="http://www.w3.org/2000/svg" width="2000" height="2000" viewBox="0 0 2000 2000" fill="none"><rect width="2000" height="2000" fill="black"></rect><path d="M683.329 833.333C683.329 853.031 687.209 872.537 694.747 890.736C702.285 908.934 713.334 925.47 727.263 939.399C741.192 953.328 757.728 964.377 775.927 971.915C794.125 979.453 813.631 983.333 833.329 983.333C853.027 983.333 872.533 979.453 890.732 971.915C908.93 964.377 925.466 953.328 939.395 939.399C953.324 925.47 964.373 908.934 971.911 890.736C979.449 872.537 983.329 853.031 983.329 833.333C983.329 793.551 967.526 755.397 939.395 727.267C911.265 699.137 873.112 683.333 833.329 683.333C793.547 683.333 755.394 699.137 727.263 727.267C699.133 755.397 683.329 793.551 683.329 833.333ZM683.329 1166.67C683.329 1186.36 687.209 1205.87 694.747 1224.07C702.285 1242.27 713.334 1258.8 727.263 1272.73C741.192 1286.66 757.728 1297.71 775.927 1305.25C794.125 1312.79 813.631 1316.67 833.329 1316.67C853.027 1316.67 872.533 1312.79 890.732 1305.25C908.93 1297.71 925.466 1286.66 939.395 1272.73C953.324 1258.8 964.373 1242.27 971.911 1224.07C979.449 1205.87 983.329 1186.36 983.329 1166.67C983.329 1126.88 967.526 1088.73 939.395 1060.6C911.265 1032.47 873.112 1016.67 833.329 1016.67C793.547 1016.67 755.394 1032.47 727.263 1060.6C699.133 1088.73 683.329 1126.88 683.329 1166.67ZM1016.66 1166.67C1016.66 1206.45 1032.47 1244.6 1060.6 1272.73C1088.73 1300.86 1126.88 1316.67 1166.66 1316.67C1206.44 1316.67 1244.6 1300.86 1272.73 1272.73C1300.86 1244.6 1316.66 1206.45 1316.66 1166.67C1316.66 1126.88 1300.86 1088.73 1272.73 1060.6C1244.6 1032.47 1206.44 1016.67 1166.66 1016.67C1126.88 1016.67 1088.73 1032.47 1060.6 1060.6C1032.47 1088.73 1016.66 1126.88 1016.66 1166.67ZM1184.16 971.833L1193.43 950.633C1209.61 913.063 1239.3 882.932 1276.63 866.2L1305.1 853.533C1320.53 846.7 1320.53 824.266 1305.1 817.433L1278.23 805.466C1239.92 788.317 1209.69 757.079 1193.8 718.233L1184.3 695.3C1182.88 691.779 1180.45 688.761 1177.31 686.636C1174.16 684.511 1170.46 683.375 1166.66 683.375C1162.87 683.375 1159.16 684.511 1156.02 686.636C1152.88 688.761 1150.44 691.779 1149.03 695.3L1139.53 718.233C1123.64 757.079 1093.4 788.317 1055.1 805.466L1028.23 817.433C1012.8 824.266 1012.8 846.7 1028.23 853.533L1056.7 866.2C1094.02 882.932 1123.71 913.063 1139.9 950.633L1149.16 971.833C1150.62 975.272 1153.05 978.207 1156.16 980.27C1159.28 982.333 1162.93 983.434 1166.66 983.434C1170.4 983.434 1174.05 982.333 1177.16 980.27C1180.27 978.207 1182.71 975.272 1184.16 971.833Z" fill="white"></path></svg> 